<?xml version="1.0" encoding="UTF-8" standalone="no"?>
<svg xmlns:dc="http://purl.org/dc/elements/1.1/" xmlns:cc="http://creativecommons.org/ns#" xmlns:rdf="http://www.w3.org/1999/02/22-rdf-syntax-ns#"
    xmlns="http://www.w3.org/2000/svg" viewBox="0 0 2730.6667 2730.6667" height="2730.6667" width="2730.6667"
    xml:space="preserve" id="svg2" version="1.1"><metadata
     id="metadata8"><rdf:RDF><cc:Work
         rdf:about=""><dc:format>image/svg+xml</dc:format><dc:type
           rdf:resource="http://purl.org/dc/dcmitype/StillImage" /></cc:Work></rdf:RDF></metadata><defs
     id="defs6"><clipPath
       id="clipPath20"
       clipPathUnits="userSpaceOnUse"><path
         id="path18"
         d="M 300.363,197.027 H 1747.64 V 1856.13 H 300.363 Z" /></clipPath></defs><g
     transform="matrix(1.3333333,0,0,-1.3333333,0,2730.6667)"
     id="g10"><g
       transform="matrix(1,0,0,-1,0,2048)"
       id="g12"><g
         id="g14"><g
           clip-path="url(#clipPath20)"
           id="g16"><g
             transform="translate(1144.2031,967.1133)"
             id="g22"><path
               id="path24"
               style="fill:#000000;fill-opacity:1;fill-rule:nonzero;stroke:none"
               d="m 0,0 c 0,0.0977 0,0.1992 0,0.2969 0,0.4375 -0.0195,0.8711 -0.0469,1.3008 -0.0937,4.082 0.0196,8.1875 0.0078,12.2656 -0.0234,8.0703 -0.0468,16.1406 -0.0703,24.2109 -0.0429,14.8516 -0.0898,29.7031 -0.1289,44.5547 -0.0273,9.5352 -0.082,19.0781 -0.0898,28.6172 0.0078,0.0547 0.0156,0.1094 0.0195,0.1641 0.0274,0.1562 0.0469,0.3125 0.0625,0.4726 0.0156,0.1172 0.0313,0.2383 0.0391,0.3555 0.0117,0.0664 0.0156,0.1367 0.0195,0.2109 0.0156,0.1406 0.0273,0.2774 0.0352,0.418 0.0117,0.1484 0.0195,0.2969 0.0234,0.4453 0.0391,0.7578 0.0312,1.5156 -0.0234,2.2695 -0.0118,0.2227 -0.0313,0.4453 -0.0547,0.668 -0.0469,0.4883 -0.1133,0.9727 -0.1992,1.4531 -0.0313,0.1875 -0.0665,0.375 -0.1055,0.5586 -0.0391,0.2071 -0.086,0.4102 -0.1328,0.6094 -0.0391,0.1758 -0.0821,0.3477 -0.1289,0.5195 -0.0313,0.1289 -0.0664,0.2578 -0.1055,0.3867 -0.0391,0.1524 -0.0859,0.3008 -0.1328,0.4493 -0.0547,0.1914 -0.1172,0.3789 -0.1836,0.5664 -0.0235,0.0781 -0.0508,0.1523 -0.0781,0.2304 -0.0391,0.1211 -0.086,0.2422 -0.1329,0.3633 -0.0507,0.1367 -0.1015,0.2735 -0.1601,0.4102 -0.0078,0.0312 -0.0195,0.0625 -0.0352,0.0937 -0.0703,0.1797 -0.1445,0.3594 -0.2265,0.5352 -0.0586,0.1445 -0.125,0.2851 -0.1914,0.4258 -0.0664,0.1445 -0.1328,0.289 -0.2032,0.4297 -0.0312,0.0625 -0.0625,0.125 -0.0937,0.1875 -0.0625,0.121 -0.125,0.246 -0.1914,0.3671 -0.0391,0.0743 -0.0781,0.1524 -0.1211,0.2266 -0.0742,0.1367 -0.1484,0.2695 -0.2266,0.4023 -0.0195,0.0313 -0.0351,0.0625 -0.0547,0.0938 -0.0429,0.0781 -0.0859,0.1523 -0.1328,0.2266 -2.2851,3.9375 -5.8672,7.0546 -10.1367,8.7304 0,0 -0.0039,0 -0.0039,0 -0.1914,0.1094 -0.3789,0.2188 -0.5703,0.3321 -1.875,1.082 -3.75,2.1718 -5.6211,3.2617 -1.5508,0.8984 -3.1016,1.8008 -4.6523,2.707 -2.0704,1.2031 -4.1407,2.4102 -6.2149,3.6211 -2.5625,1.4922 -5.125,2.9844 -7.6875,4.4727 -6.4219,3.7304 -12.8437,7.4609 -19.2617,11.1914 -6.4219,3.7304 -12.8399,7.4648 -19.2617,11.1992 -6.9766,4.0547 -13.9532,8.1094 -20.9297,12.164 -2.707,1.5704 -5.4649,3.0899 -8.1797,4.6758 -0.3828,0.2188 -0.7656,0.4453 -1.1484,0.6719 -0.3946,0.2344 -0.7891,0.4687 -1.1836,0.707 -0.0196,0.0117 -0.0352,0.0235 -0.0547,0.0313 -0.0274,0.0195 -0.0508,0.0351 -0.0742,0.0469 0,0.004 -0.004,0.004 -0.004,0.004 -0.1797,0.1211 -0.3633,0.2421 -0.5508,0.3554 -0.1094,0.0703 -0.2188,0.1367 -0.3282,0.2032 -0.0664,0.0429 -0.1367,0.0859 -0.207,0.125 -0.0351,0.0195 -0.0664,0.0351 -0.1015,0.0546 -0.008,0.004 -0.0196,0.0118 -0.0274,0.0157 -0.008,0.008 -0.0156,0.0117 -0.0273,0.0195 -0.0157,0.008 -0.0313,0.0195 -0.0469,0.0273 -0.0156,0.0118 -0.0352,0.0235 -0.0508,0.0313 -0.707,0.4062 -1.4297,0.7656 -2.168,1.0703 -2.4492,1.0313 -5.0351,1.5234 -7.6054,1.5234 -0.2422,0 -0.4805,-0.004 -0.7188,-0.0156 -0.0547,0 -0.1133,0 -0.1719,-0.004 -0.0195,0 -0.039,0 -0.0585,-0.004 -0.0391,0 -0.0743,0 -0.1133,-0.004 -0.0391,0.004 -0.0742,0.004 -0.1133,0.004 -0.0781,0.004 -0.1563,0.008 -0.2305,0.008 -2.7461,0.1016 -5.5273,-0.3594 -8.1484,-1.4297 -0.7969,-0.3242 -1.5781,-0.707 -2.3438,-1.1484 -0.0156,-0.008 -0.0351,-0.0195 -0.0507,-0.0313 -0.0157,-0.008 -0.0313,-0.0195 -0.0469,-0.0273 -0.0117,-0.008 -0.0195,-0.0117 -0.0274,-0.0195 -0.008,-0.004 -0.0195,-0.0118 -0.0273,-0.0157 -0.0352,-0.0195 -0.0664,-0.0351 -0.1016,-0.0546 -0.0703,-0.0391 -0.1406,-0.0821 -0.207,-0.125 -0.1094,-0.0665 -0.2187,-0.1329 -0.3281,-0.2032 -0.1875,-0.1133 -0.3711,-0.2343 -0.5508,-0.3554 0,0 -0.004,0 -0.004,-0.004 -0.0234,-0.0118 -0.0508,-0.0274 -0.0742,-0.0469 -0.0157,-0.008 -0.0352,-0.0196 -0.0547,-0.0313 -0.3945,-0.2383 -0.7891,-0.4726 -1.1836,-0.707 -0.3828,-0.2266 -0.7656,-0.4531 -1.1484,-0.6719 -2.7149,-1.5859 -5.4727,-3.1054 -8.1797,-4.6758 -6.9766,-4.0546 -13.9532,-8.1093 -20.9297,-12.164 -6.4219,-3.7344 -12.8399,-7.4688 -19.2617,-11.1992 -6.418,-3.7305 -12.8399,-7.461 -19.2618,-11.1914 -2.5625,-1.4883 -5.125,-2.9805 -7.6875,-4.4727 -2.0742,-1.2109 -4.1445,-2.418 -6.2148,-3.6211 -1.5508,-0.9062 -3.1016,-1.8086 -4.6523,-2.707 -1.8711,-1.0899 -3.7461,-2.1797 -5.6211,-3.2617 -0.1914,-0.1133 -0.3789,-0.2227 -0.5704,-0.3321 -0.004,0 -0.004,-0.004 -0.008,-0.004 -0.2187,-0.0859 -0.4336,-0.1758 -0.6484,-0.2656 -0.1094,-0.0469 -0.2188,-0.0938 -0.3242,-0.1445 -0.0742,-0.0352 -0.1485,-0.0704 -0.2227,-0.1055 -0.2656,-0.125 -0.5234,-0.2539 -0.7812,-0.3867 -0.1289,-0.0703 -0.2578,-0.1367 -0.3828,-0.2071 -0.0938,-0.0546 -0.1875,-0.1054 -0.2813,-0.1601 -0.6836,-0.3906 -1.3398,-0.8203 -1.9687,-1.2852 -0.0977,-0.0742 -0.1954,-0.1445 -0.2891,-0.2187 -0.4609,-0.3516 -0.9023,-0.7227 -1.3281,-1.1133 -0.0899,-0.082 -0.1797,-0.1641 -0.2696,-0.25 -0.1211,-0.1133 -0.2421,-0.2305 -0.3593,-0.3477 -0.1016,-0.1015 -0.2032,-0.2031 -0.3047,-0.3086 -0.0821,-0.0859 -0.1641,-0.1718 -0.2461,-0.2578 -0.1406,-0.1484 -0.2774,-0.3007 -0.4102,-0.457 -0.0742,-0.082 -0.1445,-0.1641 -0.2148,-0.2461 -0.1836,-0.2148 -0.3633,-0.4336 -0.5352,-0.6562 -0.082,-0.1016 -0.1601,-0.2071 -0.2383,-0.3086 -0.3593,-0.4766 -0.6992,-0.9766 -1.0156,-1.4844 -0.0781,-0.125 -0.1523,-0.25 -0.2265,-0.375 -0.0313,-0.0469 -0.0586,-0.0977 -0.086,-0.1484 -0.0469,-0.0743 -0.0898,-0.1485 -0.1328,-0.2266 -0.0195,-0.0313 -0.0351,-0.0625 -0.0547,-0.0938 -0.0547,-0.0898 -0.1054,-0.1835 -0.1562,-0.2773 -0.0235,-0.0391 -0.0469,-0.082 -0.0703,-0.125 -0.043,-0.0742 -0.0821,-0.1523 -0.1211,-0.2266 -0.0664,-0.1211 -0.1289,-0.2461 -0.1914,-0.3671 -0.0313,-0.0625 -0.0625,-0.125 -0.0938,-0.1875 -0.0703,-0.1407 -0.1367,-0.2852 -0.2031,-0.4297 -0.0664,-0.1407 -0.1328,-0.2813 -0.1914,-0.4258 -0.0821,-0.1758 -0.1563,-0.3555 -0.2266,-0.5352 -0.0156,-0.0312 -0.0273,-0.0625 -0.0351,-0.0937 -0.0586,-0.1367 -0.1094,-0.2735 -0.1602,-0.4102 -0.0469,-0.1211 -0.0937,-0.2422 -0.1328,-0.3633 -0.0274,-0.0781 -0.0547,-0.1523 -0.0781,-0.2304 -0.0664,-0.1875 -0.1289,-0.375 -0.1836,-0.5664 -0.0469,-0.1485 -0.0938,-0.2969 -0.1328,-0.4493 -0.0391,-0.1289 -0.0743,-0.2578 -0.1055,-0.3867 -0.0469,-0.1718 -0.0899,-0.3437 -0.1289,-0.5195 -0.0469,-0.1992 -0.0938,-0.4023 -0.1328,-0.6094 -0.0391,-0.1836 -0.0742,-0.3711 -0.1055,-0.5586 -0.0859,-0.4804 -0.1523,-0.9648 -0.1992,-1.4531 -0.0235,-0.2227 -0.043,-0.4453 -0.0547,-0.668 -0.0547,-0.7539 -0.0625,-1.5117 -0.0234,-2.2695 0.004,-0.1484 0.0117,-0.2969 0.0234,-0.4453 0.008,-0.1406 0.0195,-0.2774 0.0352,-0.418 0.004,-0.0742 0.008,-0.1445 0.0195,-0.2109 0.008,-0.1172 0.0234,-0.2383 0.039,-0.3555 0.0157,-0.1601 0.0352,-0.3164 0.0625,-0.4726 0.004,-0.0469 0.0118,-0.0938 0.0196,-0.1407 0,-0.008 0,-0.0117 0,-0.0156 0,-0.004 0,-0.004 0,-0.008 0,-1.4961 -0.004,-2.9922 -0.008,-4.4883 -0.004,-2.3086 -0.0118,-4.6133 -0.0196,-6.9219 -0.0195,-5.7382 -0.0468,-11.4726 -0.0625,-17.207 -0.039,-14.8516 -0.0859,-29.7031 -0.1289,-44.5547 -0.0234,-8.0703 -0.0468,-16.1406 -0.0703,-24.2109 -0.008,-3.375 0.0664,-6.7696 0.0391,-10.1524 0,-0.2382 -0.004,-0.4765 -0.008,-0.7187 -0.004,-0.4649 -0.0118,-0.9297 -0.0235,-1.3945 0,-0.0079 0,-0.0157 0,-0.0235 -0.008,-0.0898 -0.0117,-0.1758 -0.0156,-0.2656 -0.0117,-0.1523 -0.0156,-0.3086 -0.0195,-0.4648 -0.008,-0.1797 -0.0117,-0.3633 -0.0117,-0.5469 0,-0.0977 0,-0.1992 0,-0.2969 0,-0.2305 0.004,-0.457 0.0156,-0.6875 -0.004,-0.0273 0,-0.0586 0.004,-0.0898 0.004,-0.2266 0.0195,-0.4493 0.0351,-0.6758 0.0157,-0.2032 0.0352,-0.4063 0.0547,-0.6094 0.0117,-0.1016 0.0235,-0.2031 0.0391,-0.3047 0.0508,-0.4336 0.1172,-0.8594 0.2031,-1.2851 0.0352,-0.1914 0.0742,-0.3789 0.1172,-0.5664 0.0547,-0.25 0.1133,-0.4961 0.1797,-0.7422 0.0586,-0.2149 0.1172,-0.4297 0.1836,-0.6446 0.008,-0.0273 0.0156,-0.0547 0.0273,-0.0859 0.0625,-0.207 0.1289,-0.4102 0.1992,-0.6133 0.0586,-0.168 0.1172,-0.332 0.1797,-0.4961 0.0469,-0.125 0.0938,-0.25 0.1446,-0.3711 0.0703,-0.1797 0.1406,-0.3554 0.2187,-0.5312 0.0781,-0.1797 0.1602,-0.3594 0.2383,-0.5391 0.008,-0.0078 0.0117,-0.0156 0.0117,-0.0234 0.0938,-0.1914 0.1836,-0.3789 0.2813,-0.5625 0.008,-0.0235 0.0195,-0.0469 0.0312,-0.0664 0.0938,-0.1836 0.1914,-0.3672 0.293,-0.5469 0.0195,-0.0352 0.039,-0.0703 0.0586,-0.1055 0.1015,-0.1797 0.2031,-0.3593 0.3125,-0.539 0.1133,-0.1875 0.2304,-0.375 0.3515,-0.5625 0.1094,-0.2149 0.2227,-0.4258 0.3399,-0.6368 0.1133,-0.1992 0.2265,-0.4023 0.3476,-0.6015 0.1172,-0.1953 0.2383,-0.3945 0.3672,-0.586 0.1211,-0.1953 0.2539,-0.3906 0.3867,-0.5781 0.1329,-0.1914 0.2696,-0.3828 0.4102,-0.5664 0.1289,-0.1758 0.2656,-0.3476 0.4063,-0.5195 0.0195,-0.0274 0.0429,-0.0547 0.0625,-0.082 0.1093,-0.1368 0.2187,-0.2696 0.3359,-0.3985 0.0781,-0.0937 0.1601,-0.1875 0.2422,-0.2773 0.0508,-0.0586 0.1015,-0.1172 0.1562,-0.1719 0.0821,-0.0938 0.168,-0.1875 0.2578,-0.2773 0.125,-0.129 0.2461,-0.2579 0.375,-0.3829 0.1563,-0.1562 0.3125,-0.3086 0.4727,-0.457 0.0234,-0.0234 0.0508,-0.0469 0.0742,-0.0664 0.1328,-0.125 0.2656,-0.2422 0.3985,-0.3555 0.0429,-0.039 0.0859,-0.0781 0.1289,-0.1133 0.1679,-0.1445 0.3359,-0.2851 0.5117,-0.4218 0.1836,-0.1485 0.3672,-0.2891 0.5586,-0.4297 0.004,-0.0039 0.008,-0.0078 0.0117,-0.0117 0.1914,-0.1407 0.3867,-0.2813 0.582,-0.4102 0.1992,-0.1406 0.4024,-0.2734 0.6055,-0.3984 0.207,-0.1328 0.4141,-0.2578 0.625,-0.3789 0.0273,-0.0157 0.0586,-0.0313 0.0859,-0.0469 0.0547,-0.0313 0.1094,-0.0625 0.168,-0.0977 0.3633,-0.207 0.7305,-0.4062 1.1016,-0.5859 0.0312,-0.0156 0.0625,-0.0313 0.0937,-0.0469 0.004,-0.0039 0.0117,-0.0039 0.0156,-0.0078 0.0196,-0.0117 0.0391,-0.0234 0.0586,-0.0351 3.5391,-1.9454 7.0039,-4.0704 10.5,-6.0743 7,-4.0117 14.0039,-8.0273 21.0039,-12.0429 6.4414,-3.6953 12.8828,-7.3868 19.3243,-11.0821 6.4453,-3.6953 12.8828,-7.3867 19.3242,-11.0859 1.164,-0.668 2.3281,-1.3359 3.4961,-2 7.1132,-4.0781 14.2382,-8.1445 21.3437,-12.2344 0.004,-0.0039 0.008,-0.0078 0.0117,-0.0078 0.125,-0.1016 0.25,-0.1992 0.375,-0.293 0.0977,-0.0742 0.1993,-0.1484 0.3008,-0.2226 0.1133,-0.086 0.2305,-0.168 0.3516,-0.25 0.1172,-0.086 0.2344,-0.1641 0.3554,-0.2422 0.2383,-0.1563 0.4805,-0.3125 0.7227,-0.4609 0.1211,-0.0743 0.2461,-0.1485 0.3711,-0.2149 0.125,-0.0742 0.25,-0.1445 0.375,-0.2109 0.0234,-0.0156 0.0469,-0.0274 0.0703,-0.0391 0.1367,-0.0742 0.2734,-0.1484 0.4141,-0.2187 0.0898,-0.0469 0.1836,-0.0938 0.2734,-0.1368 0.1289,-0.0664 0.2578,-0.125 0.3867,-0.1875 0.2032,-0.0976 0.4102,-0.1875 0.6211,-0.2773 0.1289,-0.0586 0.2578,-0.1094 0.3867,-0.1641 0.1993,-0.0781 0.4024,-0.1562 0.6055,-0.2343 0.1211,-0.043 0.2422,-0.086 0.3633,-0.125 0.1328,-0.0469 0.2695,-0.0938 0.4062,-0.1368 0.1758,-0.0585 0.3516,-0.1132 0.5313,-0.164 0.3672,-0.1094 0.7383,-0.207 1.1133,-0.293 0.1093,-0.0273 0.2187,-0.0508 0.3281,-0.0742 0.0625,-0.0156 0.125,-0.0273 0.1875,-0.0391 0.1758,-0.039 0.3516,-0.0703 0.5273,-0.1015 0.1289,-0.0235 0.2578,-0.0469 0.3868,-0.0664 0.2148,-0.0352 0.4257,-0.0664 0.6406,-0.0938 0.2187,-0.0273 0.4375,-0.0508 0.6523,-0.0703 0.3594,-0.0352 0.7188,-0.0586 1.0821,-0.0742 0.0742,-0.0039 0.1484,-0.0078 0.2226,-0.0078 0.207,-0.0078 0.418,-0.0117 0.625,-0.0117 0.004,0 0.008,0 0.008,0 0.0547,0 0.1055,0 0.1563,0 0.0508,0 0.1015,0 0.1562,0 0,0 0.004,0 0.008,0 0.2071,0 0.418,0.0039 0.625,0.0117 0.0743,0 0.1485,0.0039 0.2227,0.0078 0.3633,0.0117 0.7226,0.039 1.082,0.0742 0.2305,0.0195 0.4649,0.0469 0.6992,0.0781 0.1993,0.0235 0.3946,0.0547 0.5938,0.086 0.1992,0.0312 0.3945,0.0664 0.5937,0.1015 0.1524,0.0313 0.3047,0.0625 0.4571,0.0938 0.1289,0.0273 0.2539,0.0547 0.3789,0.0859 0,0 0.004,0 0.004,0 0.1562,0.0352 0.3086,0.0742 0.4609,0.1133 0.2188,0.0547 0.4336,0.1133 0.6485,0.1797 0.1992,0.0547 0.3984,0.1172 0.5937,0.1836 0.1758,0.0547 0.3516,0.1172 0.5234,0.1797 0.2657,0.0898 0.5274,0.1914 0.7891,0.2968 0.168,0.0664 0.3359,0.1368 0.5,0.211 0.1719,0.0742 0.3399,0.1484 0.5078,0.2265 0.043,0.0235 0.086,0.043 0.1289,0.0625 0.375,0.1797 0.7422,0.3672 1.1055,0.5704 0.1914,0.1054 0.3828,0.2148 0.5703,0.3242 0.1836,0.1093 0.3633,0.2226 0.543,0.3398 0.1601,0.1016 0.3125,0.2031 0.4687,0.3086 0.2188,0.1484 0.4375,0.3047 0.6485,0.4649 0.1601,0.1171 0.3164,0.2382 0.4765,0.3632 0.0196,0.0118 0.0352,0.0274 0.0547,0.043 0.004,0.0039 0.008,0.0078 0.0117,0.0078 2.0664,1.1914 4.1368,2.3789 6.2071,3.5664 4.5742,2.625 9.1523,5.2422 13.7304,7.8633 1.6328,0.9336 3.2696,1.8711 4.9024,2.8086 6.4414,3.6992 12.8789,7.3906 19.3242,11.0859 6.4414,3.6953 12.8828,7.3868 19.3242,11.0821 7.0039,4.0156 14.0039,8.0312 21.0039,12.0429 3.4961,2.0039 6.961,4.1289 10.5,6.0743 0.0196,0.0117 0.0391,0.0234 0.0586,0.0351 0.0039,0.0039 0.0117,0.0039 0.0156,0.0078 0.0313,0.0156 0.0625,0.0313 0.0938,0.0469 0.3711,0.1797 0.7383,0.3789 1.1016,0.5859 0.0586,0.0352 0.1132,0.0664 0.1679,0.0977 0.0274,0.0156 0.0586,0.0312 0.086,0.0469 0.2109,0.1211 0.4179,0.2461 0.625,0.3789 0.2031,0.125 0.4062,0.2578 0.6054,0.3984 0.1953,0.1289 0.3907,0.2695 0.5821,0.4102 0.0039,0.0039 0.0078,0.0078 0.0117,0.0117 0.1914,0.1406 0.375,0.2812 0.5586,0.4297 0.1758,0.1367 0.3437,0.2773 0.5117,0.4218 0.043,0.0352 0.0859,0.0743 0.1289,0.1133 0.1328,0.1133 0.2656,0.2305 0.3984,0.3555 0.0235,0.0195 0.0508,0.043 0.0743,0.0664 0.1601,0.1484 0.3164,0.3008 0.4726,0.457 0.1289,0.125 0.25,0.2539 0.375,0.3829 0.0899,0.0898 0.1758,0.1835 0.2578,0.2773 0.0547,0.0547 0.1055,0.1133 0.1563,0.1719 0.082,0.0898 0.164,0.1836 0.2422,0.2773 0.1172,0.1289 0.2265,0.2617 0.3359,0.3985 0.0195,0.0273 0.043,0.0546 0.0625,0.082 0.1406,0.1719 0.2773,0.3437 0.4063,0.5195 0.1406,0.1836 0.2773,0.375 0.4101,0.5664 0.1328,0.1875 0.2656,0.3828 0.3867,0.5781 0.1289,0.1915 0.25,0.3907 0.3672,0.586 0.1211,0.1992 0.2344,0.4023 0.3477,0.6015 0.1172,0.211 0.2304,0.4219 0.3398,0.6368 C -1.1719,-7.5547 0,-3.8945 0,0 Z" /></g><g
             transform="translate(1005.5312,1594.3438)"
             id="g26"><path
               id="path28"
               style="fill:#000000;fill-opacity:1;fill-rule:nonzero;stroke:none"
               d="m 0,0 c 0.1289,-17.0039 0.2656,-34.0078 0.3867,-51.0156 -0.9609,-0.2578 -1.918,-0.543 -2.8633,-0.8516 -0.1523,-0.0469 -0.3007,-0.0976 -0.4492,-0.1484 -0.8281,-0.2735 -1.6523,-0.5703 -2.4687,-0.8867 -2.6719,-1.0313 -5.2657,-2.2657 -7.7539,-3.6993 -6.9961,-4.039 -13.9727,-8.1015 -20.961,-12.1562 -16.7461,-9.711 -33.4922,-19.4336 -50.2461,-29.1406 -17.7148,-10.2657 -35.4218,-20.543 -53.1328,-30.8164 -18.5117,-10.7383 -37.0273,-21.4727 -55.5429,-32.211 -18.2774,-10.6015 -36.5547,-21.2031 -54.8321,-31.8047 -18.0547,-10.4687 -36.1054,-20.9414 -54.1601,-31.4101 -18.2305,-10.5703 -36.4649,-21.1406 -54.6914,-31.7188 -1.9219,-1.1172 -3.8477,-2.2304 -5.7696,-3.3476 -5.7695,-3.3438 -11.5468,-6.6797 -17.3164,-10.0196 -7.6953,-4.457 -15.3867,-8.914 -23.0664,-13.4023 -0.3672,-0.2148 -0.7305,-0.4297 -1.0898,-0.6523 -0.3633,-0.2188 -0.7227,-0.4415 -1.0782,-0.6719 -0.332,-0.211 -0.664,-0.4258 -0.9921,-0.6446 -0.1407,-0.0898 -0.2813,-0.1835 -0.418,-0.2773 -0.125,-0.082 -0.2461,-0.168 -0.3711,-0.25 -0.1484,-0.1016 -0.293,-0.2031 -0.4414,-0.3047 -0.3047,-0.2109 -0.6133,-0.4297 -0.9141,-0.6484 -0.2773,-0.1992 -0.5547,-0.4024 -0.8281,-0.6055 -0.0195,-0.0156 -0.0391,-0.0273 -0.0586,-0.043 -0.1953,-0.1445 -0.3906,-0.2929 -0.5859,-0.4453 -0.1992,-0.1484 -0.3946,-0.2968 -0.586,-0.4492 -0.3047,-0.2383 -0.6015,-0.4766 -0.8984,-0.7187 -0.0859,-0.0664 -0.168,-0.1329 -0.25,-0.2032 -0.2461,-0.1992 -0.4922,-0.4062 -0.7344,-0.6093 -0.9883,-0.836 -1.9492,-1.7032 -2.8828,-2.5938 -0.25,-0.2383 -0.4961,-0.4766 -0.7383,-0.7187 -0.0273,-0.0235 -0.0508,-0.0469 -0.0742,-0.0743 -0.2461,-0.2421 -0.4883,-0.4882 -0.7266,-0.7343 -0.5898,-0.6016 -1.164,-1.2149 -1.7187,-1.836 -0.1328,-0.1445 -0.2656,-0.2929 -0.3906,-0.4414 -0.1875,-0.207 -0.3711,-0.4179 -0.5508,-0.6289 -0.168,-0.1914 -0.332,-0.3867 -0.4922,-0.582 -0.3203,-0.3789 -0.6328,-0.7617 -0.9375,-1.1485 -0.1016,-0.125 -0.1992,-0.25 -0.3008,-0.3789 -0.2265,-0.289 -0.4492,-0.582 -0.6719,-0.875 -0.207,-0.2773 -0.414,-0.5586 -0.621,-0.8398 -0.0508,-0.0703 -0.1016,-0.1406 -0.1524,-0.2109 -0.1875,-0.2579 -0.3711,-0.5196 -0.5547,-0.7852 -0.0937,-0.1367 -0.1875,-0.2734 -0.2812,-0.4102 -0.1602,-0.2343 -0.3203,-0.4687 -0.4766,-0.707 -0.2305,-0.3476 -0.457,-0.6914 -0.6758,-1.043 -0.0156,-0.0234 -0.0351,-0.0507 -0.0508,-0.0781 -0.1718,-0.2734 -0.3437,-0.5469 -0.5078,-0.8242 -0.2148,-0.3477 -0.4218,-0.6992 -0.625,-1.0508 -0.1015,-0.1758 -0.2031,-0.3515 -0.3047,-0.5273 -0.3437,-0.6055 -0.6757,-1.2188 -0.996,-1.836 -0.1915,-0.3632 -0.375,-0.7304 -0.5586,-1.0976 -0.008,-0.0156 -0.0157,-0.0313 -0.0235,-0.0469 -0.1719,-0.3437 -0.3359,-0.6914 -0.5,-1.0391 -0.0156,-0.0351 -0.0312,-0.0664 -0.0469,-0.1015 -0.1601,-0.3438 -0.3203,-0.6914 -0.4726,-1.0391 -0.0313,-0.0664 -0.0586,-0.1328 -0.0899,-0.1992 -0.1328,-0.3008 -0.2617,-0.6055 -0.3867,-0.9102 -0.0156,-0.0351 -0.0312,-0.0703 -0.0468,-0.1054 -0.0274,-0.0352 -0.0547,-0.0703 -0.0782,-0.1055 -0.1992,-0.2578 -0.3945,-0.5195 -0.5859,-0.7812 -0.3242,-0.4375 -0.6406,-0.8829 -0.9453,-1.3321 -0.1602,-0.2265 -0.3164,-0.4531 -0.4688,-0.6836 -0.5625,-0.832 -1.0976,-1.6757 -1.6093,-2.5351 -0.125,-0.2031 -0.2461,-0.4102 -0.3672,-0.6172 -0.1953,-0.332 -0.3868,-0.6641 -0.5703,-1 -0.1133,-0.2031 -0.2266,-0.4063 -0.3321,-0.6094 -0.1797,-0.3203 -0.3476,-0.6406 -0.5156,-0.9648 -0.1484,-0.2852 -0.293,-0.5664 -0.4336,-0.8555 -0.75,-1.5 -1.4375,-3.0312 -2.0586,-4.5898 -0.1484,-0.3789 -0.2969,-0.7579 -0.4375,-1.1407 -0.1367,-0.3593 -0.2695,-0.7226 -0.3945,-1.0859 -0.0235,-0.0664 -0.0469,-0.1289 -0.0703,-0.1953 -0.125,-0.3516 -0.2461,-0.707 -0.3594,-1.0625 -0.1289,-0.3828 -0.25,-0.7656 -0.3672,-1.1485 -0.008,-0.0234 -0.0156,-0.0468 -0.0234,-0.0703 -0.1055,-0.3476 -0.211,-0.6992 -0.3086,-1.0468 -0.0157,-0.0508 -0.0274,-0.0977 -0.0391,-0.1446 -0.0937,-0.3125 -0.1797,-0.625 -0.2617,-0.9414 -0.0469,-0.1758 -0.0938,-0.3515 -0.1406,-0.5312 -0.0664,-0.2578 -0.1328,-0.5157 -0.1953,-0.7774 -0.211,-0.8554 -0.4024,-1.7148 -0.5743,-2.582 -0.0742,-0.3633 -0.1445,-0.7266 -0.207,-1.0938 -0.0234,-0.1171 -0.0469,-0.2343 -0.0664,-0.3515 -0.0547,-0.3242 -0.1094,-0.6485 -0.1641,-0.9727 -0.0664,-0.4218 -0.1289,-0.8437 -0.1914,-1.2656 -0.0547,-0.4023 -0.1093,-0.8086 -0.1562,-1.2148 -0.043,-0.3438 -0.0821,-0.6836 -0.1172,-1.0274 -0.0195,-0.1797 -0.0391,-0.3633 -0.0547,-0.543 -0.0352,-0.3554 -0.0664,-0.7109 -0.0937,-1.0703 -0.0625,-0.7734 -0.1094,-1.5507 -0.1446,-2.3281 -0.008,-0.1289 -0.0117,-0.2617 -0.0156,-0.3906 -0.0156,-0.3203 -0.0234,-0.6445 -0.0313,-0.9688 -0.0117,-0.4218 -0.0156,-0.8437 -0.0195,-1.2695 -0.0937,-17.7812 -0.0625,-35.5664 -0.1055,-53.3516 -0.0507,-21.0742 -0.0859,-42.1484 -0.125,-63.2226 -0.039,-20.8711 -0.082,-41.7422 -0.121,-62.6094 -0.0391,-21.1289 -0.0821,-42.2617 -0.125,-63.3906 -0.043,-21.4024 -0.086,-42.8047 -0.129,-64.207 -0.039,-20.4766 -0.0859,-40.9493 -0.1171,-61.4219 -0.0352,-19.3633 -0.0782,-38.7266 -0.1172,-58.086 -0.0157,-8.0781 -0.0469,-16.1562 -0.0469,-24.2304 0,-0.3438 0.004,-0.6875 0.0117,-1.0313 0.004,-0.2734 0.0117,-0.5429 0.0235,-0.8164 0,-0.1211 0.004,-0.2422 0.0117,-0.3633 0.0117,-0.3164 0.0273,-0.6289 0.0468,-0.9453 0.0157,-0.2851 0.0352,-0.5703 0.0547,-0.8554 0.0274,-0.379 0.0586,-0.7618 0.0938,-1.1407 0.0312,-0.2968 0.0586,-0.5937 0.0937,-0.8906 0.0235,-0.2148 0.0469,-0.4258 0.0743,-0.6406 0.0273,-0.2227 0.0546,-0.4453 0.0859,-0.6641 0.0664,-0.5039 0.1406,-1.0078 0.2226,-1.5117 0.0352,-0.2227 0.0743,-0.4414 0.1133,-0.6602 0,-0.0117 0,-0.0234 0.004,-0.0351 0.0586,-0.3477 0.125,-0.6914 0.1914,-1.0391 -7.8945,-4.6406 -15.7929,-9.2773 -23.6875,-13.914 -16.2695,-9.5625 -32.5429,-19.1172 -48.8125,-28.6758 -17.1445,-10.0781 -34.2929,-20.1524 -51.4414,-30.2227 -17.3125,-10.164 -34.6211,-20.3437 -51.9375,-30.5117 -15.707,-9.2227 -31.4062,-18.4531 -47.1132,-27.6758 0.1093,28.0977 0.207,56.1914 0.3125,84.2891 0.121,31.9101 0.246,63.8203 0.3593,95.7305 0.1172,32.5781 0.2383,65.1562 0.3672,97.7343 0.1328,33.5274 0.2461,67.0547 0.375,100.5821 0.1289,33.2734 0.25,66.5468 0.375,99.8203 0.125,33.4922 0.2578,66.9804 0.375,100.4687 0.1172,32.4414 0.2461,64.8828 0.3672,97.3242 0.0156,4.6524 0.0352,9.3047 0.0547,13.9571 0.0273,7.4297 0.0625,14.8633 0.0937,22.2929 0.0157,4.0274 0.0352,8.0586 0.0508,12.086 0.0235,5.375 0.043,10.7539 0.0664,16.1289 0.0274,7.7187 0.0547,15.4414 0.0742,23.1601 0.875,0.5079 1.75,1.0157 2.625,1.5274 18.668,10.8437 37.3125,21.7265 55.961,32.5976 5.707,3.3282 11.418,6.6563 17.1289,9.9844 28.0351,16.3242 56.0664,32.6563 84.1016,48.9766 14.4726,8.4218 28.9453,16.8515 43.414,25.2773 14.4688,8.4258 28.9375,16.8555 43.4063,25.2813 11.1367,6.4843 22.2695,12.9687 33.4062,19.4531 6.4844,3.7773 12.9688,7.5547 19.4531,11.3281 11.1329,6.4844 22.2696,12.9688 33.4024,19.4531 28.9726,16.879 57.9492,33.7422 86.9219,50.6211 28.1484,16.3985 56.3007,32.793 84.457,49.1836 27.5742,16.0547 55.1484,32.1133 82.7226,48.1758 24.2618,14.1289 48.5235,28.25 72.7813,42.3828 0.0742,-9.1328 0.1445,-18.2656 0.2148,-27.4023 0.1563,-20.2305 0.3047,-40.461 0.4571,-60.6914 0.1523,-20.1446 0.3047,-40.2852 0.457,-60.4297 C -0.2891,38.5781 -0.1445,19.2891 0,0 Z m 359.0547,-723.6562 c 0.0312,-14.461 0.0586,-28.918 0.0859,-43.375 -6.2656,-3.6016 -12.5351,-7.2032 -18.8047,-10.8047 -6.2656,-3.6016 -12.5312,-7.2032 -18.8007,-10.8047 -17.7071,-10.1758 -35.4102,-20.3555 -53.1172,-30.5313 -18.3516,-10.539 -36.7032,-21.0859 -55.0469,-31.6367 -18.4922,-10.6289 -36.9805,-21.2578 -55.4727,-31.8828 -9.0468,-5.1992 -18.0976,-10.3945 -27.1445,-15.5938 -9.0508,-5.1992 -18.0976,-10.3984 -27.1406,-15.6015 -3.5274,-2.0313 -7.0547,-4.0586 -10.582,-6.086 -5.5586,-3.1953 -11.1133,-6.3867 -16.6719,-9.582 -6.543,-3.7578 -13.086,-7.5156 -19.6289,-11.2812 -2.543,-1.4571 -5.086,-2.918 -7.625,-4.3789 -1.2696,-0.7305 -2.5391,-1.461 -3.8047,-2.1914 -0.961,-0.5508 -1.9219,-1.1055 -2.8789,-1.6563 -4.4531,-2.5664 -8.9063,-5.1328 -13.3594,-7.6953 -2.2266,-1.2852 -4.4531,-2.5664 -6.6797,-3.8477 -0.6523,-0.375 -1.3047,-0.75 -1.957,-1.125 -0.6524,-0.3789 -1.3047,-0.7539 -1.957,-1.125 -0.6524,0.3711 -1.3047,0.7461 -1.9571,1.125 -0.6523,0.375 -1.3047,0.75 -1.957,1.125 -2.2266,1.2813 -4.4531,2.5625 -6.6797,3.8477 -4.4531,2.5625 -8.9063,5.1289 -13.3594,7.6953 -0.957,0.5508 -1.9179,1.1055 -2.8789,1.6563 -1.2656,0.7304 -2.5351,1.4609 -3.8047,2.1914 -2.539,1.4609 -5.082,2.9218 -7.625,4.3789 -6.5429,3.7656 -13.0859,7.5234 -19.6289,11.2812 -5.5586,3.1953 -11.1133,6.3867 -16.6719,9.582 -3.5273,2.0274 -7.0546,4.0547 -10.582,6.086 -9.043,5.2031 -18.0898,10.4023 -27.1406,15.6015 -9.0469,5.1993 -18.0977,10.3946 -27.1445,15.5938 -18.4922,10.625 -36.9805,21.2539 -55.4727,31.8828 -18.3437,10.5508 -36.6953,21.0977 -55.0469,31.6367 -17.707,10.1758 -35.4101,20.3555 -53.1172,30.5313 -6.2695,3.6015 -12.5351,7.2031 -18.8007,10.8047 -6.2696,3.6015 -12.5391,7.2031 -18.8047,10.8047 0.0273,14.457 0.0547,28.9179 0.0859,43.375 0.043,20.4218 0.0781,40.8437 0.1211,61.2656 0.0469,21.164 0.0859,42.3281 0.125,63.4922 0.0391,21.3281 0.0781,42.6523 0.125,63.9804 0.0469,20.8711 0.0938,41.7422 0.125,62.6133 0.0313,20.9531 0.0859,41.9102 0.1211,62.8672 0.0117,7.707 0.0195,15.418 0.0273,23.1289 0,2.5664 0.004,5.1367 0.008,7.707 0,1.5079 0.004,3.0118 0.008,4.5157 10.1992,5.9062 20.3984,11.8007 30.5937,17.7109 13.5977,7.8789 27.1875,15.7734 40.7852,23.6563 4.5312,2.6289 9.0625,5.2578 13.5976,7.8828 4.5118,2.6172 9.0274,5.2343 13.543,7.8515 4.5156,2.6172 9.0273,5.2344 13.5391,7.8516 9.0273,5.2383 18.0547,10.4766 27.082,15.7109 18.4453,10.7032 36.8945,21.4024 55.3476,32.0977 6.9532,4.0312 13.9063,8.0664 20.8594,12.0976 11.3555,6.586 22.7071,13.1719 34.0625,19.7579 17.6602,10.25 35.3281,20.4921 52.9961,30.7382 12.5039,7.2539 25.0117,14.5118 37.5196,21.7618 12.5078,-7.25 25.0156,-14.5079 37.5195,-21.7618 17.668,-10.2461 35.3359,-20.4882 52.9961,-30.7382 11.3554,-6.586 22.707,-13.1719 34.0625,-19.7579 6.9531,-4.0312 13.9062,-8.0664 20.8593,-12.0976 18.4532,-10.6953 36.9024,-21.3945 55.3477,-32.0977 9.0273,-5.2343 18.0547,-10.4726 27.082,-15.7109 4.5118,-2.6172 9.0235,-5.2344 13.5391,-7.8516 4.5156,-2.6172 9.0312,-5.2343 13.543,-7.8515 4.5351,-2.625 9.0664,-5.2539 13.5976,-7.8828 13.5977,-7.8829 27.1875,-15.7774 40.7852,-23.6563 10.1953,-5.9102 20.3984,-11.8047 30.5976,-17.7109 0,0 0,-0.004 0,-0.004 0.0157,-11.7852 0.0196,-23.5664 0.0391,-35.3477 0.0352,-20.957 0.0898,-41.9141 0.1211,-62.8672 0.0312,-20.8711 0.0781,-41.7422 0.125,-62.6133 0.0469,-21.3281 0.0859,-42.6523 0.125,-63.9804 0.0391,-21.1641 0.0781,-42.3282 0.125,-63.4922 0.043,-20.4219 0.0781,-40.8438 0.1211,-61.2656 z m 274.5976,-225.4063 c 15.8399,-8.9883 31.6836,-17.9727 47.5274,-26.9648 -24.3867,-13.9532 -48.7695,-27.9141 -73.1524,-41.8711 -27.6953,-15.8516 -55.3906,-31.6993 -83.0859,-47.5547 -28.2695,-16.1875 -56.543,-32.3711 -84.8203,-48.5508 -29.1016,-16.6484 -58.1953,-33.3125 -87.2969,-49.9649 -28.8789,-16.5234 -57.7578,-33.0546 -86.6367,-49.5859 -29.0625,-16.6367 -58.1328,-33.2656 -87.1953,-49.9101 -28.1524,-16.1211 -56.3125,-32.2305 -84.4649,-48.3438 -10.4882,-6.0039 -20.9804,-12 -31.4726,-17.9961 -8.5274,-4.875 -17.0547,-9.75 -25.5781,-14.6289 -5.4571,-3.125 -10.918,-6.25 -16.3711,-9.3828 -0.8789,-0.5039 -1.7578,-1.0078 -2.6367,-1.5117 -0.879,0.5039 -1.7579,1.0078 -2.6368,1.5117 -5.4531,3.1328 -10.914,6.2578 -16.3711,9.3828 -8.5234,4.8789 -17.0507,9.7539 -25.5781,14.6289 -10.4922,5.9961 -20.9844,11.9922 -31.4726,17.9961 -28.1524,16.1133 -56.3125,32.2227 -84.4649,48.3438 -29.0625,16.6445 -58.1328,33.2734 -87.1953,49.9101 -28.8789,16.5313 -57.7578,33.0625 -86.6367,49.5859 -29.1016,16.6524 -58.1953,33.3165 -87.2969,49.9649 -28.2773,16.1797 -56.5508,32.3633 -84.8203,48.5508 -27.6953,15.8554 -55.3906,31.7031 -83.0859,47.5547 -13.3868,7.664 -26.7735,15.3281 -40.1602,22.9882 -10.9805,6.2852 -21.9609,12.5704 -32.9414,18.8555 7.8789,4.625 15.7539,9.2578 23.6289,13.8828 17.4414,10.25 34.8867,20.4961 52.332,30.7422 17.3672,10.2031 34.7344,20.4063 52.1016,30.6094 16.6328,9.7734 33.2656,19.543 49.8984,29.3125 14.6602,8.6172 29.3203,17.2383 43.9883,25.8437 0.0625,-0.0664 0.1289,-0.1289 0.1914,-0.1914 0.2422,-0.2422 0.4922,-0.4804 0.7383,-0.7148 0.207,-0.2031 0.418,-0.3984 0.6289,-0.5938 0.8203,-0.7578 1.6602,-1.4921 2.5195,-2.2031 0.2422,-0.1953 0.4844,-0.3945 0.7266,-0.5859 0.5078,-0.4063 1.0234,-0.8008 1.543,-1.1836 0.1054,-0.082 0.2109,-0.1602 0.3203,-0.2383 0.4765,-0.3516 0.9609,-0.6914 1.4492,-1.0234 0.2422,-0.168 0.4883,-0.3321 0.7344,-0.4922 0.0781,-0.0547 0.1601,-0.1055 0.2422,-0.1602 0.2461,-0.1601 0.4961,-0.3203 0.7461,-0.4765 0.2695,-0.1719 0.539,-0.336 0.8125,-0.5039 0.3125,-0.1875 0.6328,-0.379 0.9531,-0.5625 6.9961,-4.0391 14.0039,-8.0508 21.0078,-12.0743 16.7891,-9.6484 33.5781,-19.2929 50.3633,-28.9453 17.7461,-10.207 35.5,-20.4023 53.25,-30.6054 18.5586,-10.6641 37.1133,-21.3321 55.6679,-31.9961 18.3204,-10.5274 36.6407,-21.0547 54.961,-31.586 18.0937,-10.4023 36.1875,-20.7969 54.2812,-31.1992 18.2735,-10.5039 36.543,-21.0117 54.8164,-31.5039 15.4258,-8.8555 30.8125,-17.7734 46.2578,-26.5859 9.9063,-5.6524 20.9454,-8.6055 32.1211,-8.3829 0.2383,0 0.4727,0.012 0.711,0.02 0.4062,0.012 0.8125,0.027 1.2148,0.051 0.2266,0.012 0.4492,0.023 0.6719,0.039 0.2539,0.016 0.5078,0.031 0.7617,0.055 0.1758,0.012 0.3555,0.027 0.5313,0.043 0.1992,0.016 0.3984,0.035 0.5976,0.055 0.2461,0.02 0.4961,0.047 0.7422,0.078 0.2852,0.027 0.5664,0.059 0.8516,0.098 0.0976,0.012 0.1992,0.024 0.2969,0.035 0.0976,-0.012 0.1992,-0.023 0.2968,-0.035 0.2852,-0.039 0.5664,-0.07 0.8516,-0.098 0.2461,-0.031 0.4961,-0.059 0.7422,-0.078 0.1992,-0.02 0.3984,-0.039 0.5976,-0.055 0.1758,-0.016 0.3555,-0.031 0.5313,-0.043 0.2539,-0.023 0.5078,-0.039 0.7617,-0.055 0.2227,-0.016 0.4453,-0.027 0.6719,-0.039 0.4023,-0.024 0.8086,-0.039 1.2148,-0.051 0.2383,-0.01 0.4727,-0.016 0.711,-0.02 11.1757,-0.2226 22.2148,2.7305 32.1211,8.3829 15.4453,8.8125 30.832,17.7304 46.2578,26.5859 18.2734,10.4922 36.5429,21 54.8164,31.5039 18.0937,10.4023 36.1875,20.7969 54.2812,31.1992 18.3203,10.5313 36.6406,21.0586 54.961,31.586 18.5546,10.664 37.1093,21.332 55.6679,31.9961 17.75,10.2031 35.5039,20.3984 53.2539,30.6054 16.7813,9.6563 33.5742,19.2969 50.3594,28.9453 7.0039,4.0235 14.0117,8.0352 21.0078,12.0743 0.3203,0.1835 0.6406,0.375 0.9531,0.5625 0.2735,0.1679 0.543,0.332 0.8125,0.5039 0.25,0.1562 0.5,0.3164 0.7461,0.4765 0.0821,0.0547 0.1641,0.1055 0.2422,0.1602 0.2461,0.1601 0.4922,0.3242 0.7344,0.4922 0.4883,0.332 0.9727,0.6718 1.4492,1.0234 0.1094,0.0781 0.2149,0.1563 0.3203,0.2383 0.5196,0.3828 1.0352,0.7773 1.543,1.1836 0.2422,0.1914 0.4844,0.3906 0.7266,0.5859 0.3789,0.3164 0.7578,0.6328 1.1289,0.957 7.9648,-4.5156 15.9297,-9.0351 23.8945,-13.5546 16.4141,-9.3086 32.8281,-18.625 49.2422,-27.9336 17.2969,-9.8086 34.5937,-19.6211 51.8906,-29.4375 17.4609,-9.9141 34.9297,-19.8125 52.3945,-29.7266 z m 67.5039,7.6953 c -7.9453,4.5078 -15.8945,9.0156 -23.8398,13.5235 -17.5977,9.9804 -35.1953,19.9648 -52.793,29.9492 -17.5195,9.9375 -35.039,19.8789 -52.5586,29.8164 -16.7773,9.5156 -33.5546,19.0351 -50.332,28.5547 -14.793,8.3906 -29.5859,16.7773 -44.375,25.1718 1.2656,4.7305 1.9336,9.6133 1.9336,14.5196 0,8.0742 -0.0312,16.1523 -0.0469,24.2304 -0.039,19.3594 -0.082,38.7227 -0.1172,58.086 -0.0312,20.4726 -0.0781,40.9453 -0.1171,61.4219 -0.043,21.4023 -0.086,42.8046 -0.129,64.207 -0.0429,21.1289 -0.0859,42.2617 -0.125,63.3906 -0.039,20.8672 -0.082,41.7383 -0.121,62.6094 -0.0391,21.0742 -0.0743,42.1484 -0.125,63.2226 -0.043,17.7852 -0.0118,35.5704 -0.1055,53.3516 -0.0703,13.5742 -4.25,26.6289 -12.3985,37.2969 -0.0156,0.0351 -0.0312,0.0703 -0.0468,0.1054 -0.125,0.3047 -0.2539,0.6094 -0.3867,0.9102 -0.0313,0.0664 -0.0586,0.1328 -0.0899,0.1992 -0.1523,0.3477 -0.3125,0.6953 -0.4726,1.0391 -0.0157,0.0351 -0.0313,0.0664 -0.0469,0.1015 -0.1641,0.3477 -0.3281,0.6954 -0.5,1.0391 -0.008,0.0156 -0.0156,0.0313 -0.0235,0.0469 -0.1836,0.3672 -0.3671,0.7344 -0.5586,1.0976 -0.3203,0.6172 -0.6523,1.2305 -0.996,1.836 -0.1016,0.1758 -0.2032,0.3515 -0.3047,0.5273 -0.2032,0.3516 -0.4102,0.7031 -0.625,1.0508 -0.1641,0.2773 -0.336,0.5508 -0.5078,0.8242 -0.0157,0.0274 -0.0352,0.0547 -0.0508,0.0781 -0.2188,0.3516 -0.4453,0.6954 -0.6758,1.043 -0.1563,0.2383 -0.3164,0.4727 -0.4766,0.707 -0.0937,0.1368 -0.1875,0.2735 -0.2812,0.4102 -0.1836,0.2656 -0.3672,0.5273 -0.5547,0.7852 -0.0508,0.0703 -0.1016,0.1406 -0.1524,0.2109 -0.207,0.2812 -0.414,0.5625 -0.621,0.8398 -0.2227,0.293 -0.4454,0.586 -0.6719,0.875 -0.1016,0.1289 -0.1992,0.2539 -0.3008,0.3789 -0.3047,0.3868 -0.6172,0.7696 -0.9375,1.1485 -0.1602,0.1953 -0.3242,0.3906 -0.4922,0.582 -0.1797,0.211 -0.3633,0.4219 -0.5508,0.6289 -0.125,0.1485 -0.2578,0.2969 -0.3906,0.4414 -0.5547,0.6211 -1.1289,1.2344 -1.7187,1.836 -0.2383,0.2461 -0.4805,0.4922 -0.7266,0.7343 -0.0234,0.0274 -0.0469,0.0508 -0.0742,0.0743 -0.2422,0.2421 -0.4883,0.4804 -0.7383,0.7187 -0.9336,0.8906 -1.8945,1.7578 -2.8828,2.5938 -0.2422,0.2031 -0.4883,0.4101 -0.7344,0.6093 -0.082,0.0703 -0.1641,0.1368 -0.25,0.2032 -0.2969,0.2421 -0.5937,0.4804 -0.8984,0.7187 -0.1914,0.1524 -0.3868,0.3008 -0.586,0.4492 -0.1953,0.1524 -0.3906,0.3008 -0.5859,0.4453 -0.0195,0.0157 -0.0391,0.0274 -0.0586,0.043 -0.2734,0.2031 -0.5508,0.4063 -0.8281,0.6055 -0.3008,0.2187 -0.6094,0.4375 -0.9141,0.6484 -0.1484,0.1016 -0.293,0.2031 -0.4414,0.3047 -0.125,0.082 -0.2461,0.168 -0.3711,0.25 -0.1367,0.0938 -0.2773,0.1875 -0.418,0.2773 -0.3281,0.2188 -0.6601,0.4336 -0.9921,0.6446 -0.3555,0.2304 -0.7149,0.4531 -1.0782,0.6719 -0.3593,0.2226 -0.7226,0.4375 -1.0898,0.6523 -7.6797,4.4883 -15.3711,8.9453 -23.0664,13.4023 -5.7696,3.3399 -11.5469,6.6758 -17.3164,10.0196 -1.9219,1.1172 -3.8477,2.2304 -5.7696,3.3476 -18.2265,10.5782 -36.4609,21.1485 -54.6914,31.7188 -18.0547,10.4687 -36.1054,20.9414 -54.1601,31.4101 -18.2774,10.6016 -36.5547,21.2032 -54.8321,31.8047 -18.5156,10.7383 -37.0312,21.4727 -55.5429,32.211 -17.711,10.2734 -35.418,20.5507 -53.1328,30.8164 -16.7539,9.707 -33.5,19.4296 -50.2461,29.1406 -6.9883,4.0547 -13.9649,8.1172 -20.961,12.1562 -2.0468,1.1836 -4.1679,2.2266 -6.3476,3.1328 -1.1016,0.461 -2.2149,0.8868 -3.3438,1.2735 -0.0703,9.1562 -0.1367,18.3164 -0.207,27.4726 C 40.043,-5.8555 39.9063,13.0156 39.7617,31.8867 39.6055,51.7734 39.457,71.6602 39.3086,91.5469 39.1602,111.625 39,131.7031 38.8555,151.7812 c -0.1328,18.211 -0.2813,36.4297 -0.4141,54.6446 24.2774,-14.1446 48.5625,-28.2774 72.8438,-42.418 27.5742,-16.0625 55.1484,-32.1211 82.7226,-48.1758 28.1563,-16.3906 56.3086,-32.7851 84.457,-49.1836 28.9727,-16.8789 57.9493,-33.7421 86.9219,-50.6211 11.1328,-6.4843 22.2695,-12.9687 33.4024,-19.4531 6.4843,-3.7734 12.9687,-7.5508 19.4531,-11.3281 11.1367,-6.4844 22.2695,-12.9688 33.4062,-19.4531 14.4688,-8.4258 28.9375,-16.8555 43.4063,-25.2813 14.4687,-8.4258 28.9414,-16.8555 43.414,-25.2773 28.0352,-16.3203 56.0665,-32.6524 84.1016,-48.9766 5.7109,-3.3281 11.4219,-6.6562 17.1289,-9.9844 18.6485,-10.8711 37.293,-21.7539 55.961,-32.5976 0.875,-0.5117 1.75,-1.0195 2.625,-1.5274 0.0781,-29.207 0.2343,-58.4179 0.3398,-87.625 0.1211,-32.4414 0.25,-64.8828 0.3672,-97.3242 0.1172,-33.4883 0.25,-66.9765 0.375,-100.4687 0.125,-33.2735 0.2461,-66.5469 0.375,-99.8203 0.1289,-33.5274 0.2422,-67.0547 0.375,-100.5821 0.1289,-32.5781 0.25,-65.1562 0.3672,-97.7343 0.1133,-31.9102 0.2383,-63.8204 0.3593,-95.7305 0.1055,-28.0781 0.2032,-56.1524 0.3125,-84.2305 z m 40.6797,-34.9726 c 0.0157,0.4375 0.0196,0.875 0.004,1.3086 0,0.0117 0,0.0234 0,0.0312 -0.0156,0.5977 -0.0625,1.1953 -0.1367,1.7891 -0.0195,0.1992 -0.0469,0.4023 -0.082,0.6015 -0.0313,0.1992 -0.0625,0.4024 -0.1016,0.6016 -0.0312,0.1992 -0.0742,0.3984 -0.1172,0.5976 -0.0312,0.1602 -0.0664,0.3204 -0.1093,0.4766 -0.008,0.0391 -0.0157,0.082 -0.0274,0.1211 -0.082,20.4844 -0.1523,40.9688 -0.2304,61.4492 -0.1172,31.8906 -0.2383,63.7774 -0.3555,95.668 -0.1211,32.3945 -0.2461,64.793 -0.3672,97.1875 -0.1211,32.9453 -0.2461,65.8984 -0.3672,98.8437 -0.125,33.3907 -0.2539,66.7813 -0.375,100.1758 -0.125,33.4258 -0.25,66.8555 -0.3789,100.2813 -0.125,32.9726 -0.2422,65.9453 -0.3672,98.9179 -0.1289,32.4727 -0.2461,64.9493 -0.3672,97.4219 -0.0547,15.6328 -0.1406,31.2617 -0.1797,46.8945 0.004,0.1368 0.004,0.2735 0.004,0.4102 0,1.5234 -0.0117,3.0508 -0.0156,4.5742 -0.0156,4.4297 -1.4961,8.5664 -3.9844,11.9258 0,0.004 -0.004,0.008 -0.008,0.0117 -0.0976,0.2344 -0.2031,0.4649 -0.3125,0.6914 -0.004,0.004 -0.004,0.008 -0.004,0.008 -0.1133,0.2383 -0.2304,0.4688 -0.3554,0.6993 -0.1016,0.1992 -0.211,0.3906 -0.3204,0.582 -0.0429,0.0781 -0.0859,0.1523 -0.1289,0.2226 -0.1015,0.1758 -0.207,0.3516 -0.3164,0.5235 -0.0117,0.0156 -0.0195,0.0312 -0.0312,0.0469 -0.1172,0.1914 -0.2422,0.3789 -0.3672,0.5625 -0.1641,0.2461 -0.3359,0.4843 -0.5156,0.7226 -0.1485,0.1992 -0.3008,0.3985 -0.461,0.5938 -0.039,0.0507 -0.0781,0.1015 -0.1211,0.1484 -0.1171,0.1445 -0.2343,0.2852 -0.3593,0.4219 -0.0313,0.0429 -0.0703,0.0859 -0.1094,0.125 -0.1172,0.1406 -0.2422,0.2773 -0.3711,0.4101 -0.0742,0.0821 -0.1523,0.1641 -0.2344,0.2461 -0.1406,0.1524 -0.289,0.2969 -0.4375,0.4414 -0.1836,0.1836 -0.3711,0.3594 -0.5625,0.5274 -0.0234,0.0234 -0.0469,0.0429 -0.0742,0.0664 -0.1797,0.1601 -0.3594,0.3164 -0.543,0.4687 -0.0234,0.0196 -0.0429,0.0352 -0.0664,0.0508 -0.1718,0.1445 -0.3476,0.2852 -0.5273,0.418 -0.0508,0.043 -0.1055,0.0859 -0.1602,0.1211 -0.1367,0.1054 -0.2695,0.2031 -0.4101,0.3008 -0.0782,0.0586 -0.1602,0.1171 -0.2461,0.1718 -0.1446,0.1016 -0.2852,0.1993 -0.4336,0.2891 -0.2774,0.1875 -0.5625,0.3633 -0.8555,0.5312 -0.6601,0.3829 -1.3164,0.7696 -1.9765,1.1524 -0.6563,0.3828 -1.3165,0.7695 -1.9766,1.1523 -0.1289,0.0743 -0.2578,0.1485 -0.3867,0.2188 -0.0235,0.0117 -0.043,0.0234 -0.0664,0.0351 -3.793,2.2032 -7.5821,4.4063 -11.3711,6.6172 -2.9492,1.7149 -5.8946,3.4336 -8.8438,5.1524 -6.7383,3.9258 -13.4726,7.8554 -20.2109,11.7812 -14.0313,8.168 -28.0625,16.3399 -42.0938,24.5117 -14.0312,8.1719 -28.0625,16.3438 -42.0937,24.5157 -28.4883,16.5937 -56.9883,33.1836 -85.4766,49.7773 -28.8867,16.8242 -57.7734,33.6445 -86.6601,50.4688 -28.8594,16.8007 -57.711,33.6093 -86.5664,50.4101 -28.4727,16.582 -56.9454,33.1641 -85.418,49.7461 -27.9961,16.3008 -55.9883,32.6055 -83.9844,48.9063 -27.5586,16.0468 -55.1133,32.0937 -82.6719,48.1445 -17.6953,10.3047 -35.3984,20.6055 -53.0976,30.918 -0.0039,0.004 -0.0078,0.008 -0.0117,0.008 -0.1211,0.1172 -0.2422,0.2304 -0.3633,0.3437 -0.1641,0.1485 -0.3281,0.2969 -0.4961,0.4375 -0.168,0.1445 -0.3398,0.2852 -0.5117,0.4219 -0.1836,0.1484 -0.3672,0.2891 -0.5547,0.4297 -0.1641,0.1211 -0.332,0.2422 -0.5039,0.3594 -0.1797,0.125 -0.3633,0.25 -0.5469,0.3671 -0.1836,0.1211 -0.3711,0.2383 -0.5586,0.3516 -0.1367,0.0859 -0.2773,0.168 -0.418,0.2461 -0.1171,0.0664 -0.2343,0.1328 -0.3554,0.1992 -0.3438,0.1875 -0.6953,0.3672 -1.0508,0.5352 -0.168,0.0781 -0.3359,0.1562 -0.5039,0.2304 -0.3672,0.1602 -0.7344,0.3125 -1.1094,0.4493 -0.0703,0.0273 -0.1445,0.0546 -0.2187,0.082 -0.168,0.0586 -0.3399,0.1172 -0.5078,0.1758 -0.1875,0.0625 -0.375,0.1211 -0.5625,0.1758 -0.0391,0.0156 -0.0782,0.0234 -0.1172,0.0351 -0.1914,0.0586 -0.3828,0.1133 -0.5782,0.1602 -0.1679,0.0468 -0.3398,0.0898 -0.5117,0.1289 -0.082,0.0195 -0.164,0.039 -0.25,0.0586 -0.1836,0.039 -0.3672,0.0781 -0.5508,0.1132 -0.2031,0.0391 -0.4062,0.0782 -0.6093,0.1094 -0.211,0.0352 -0.4219,0.0664 -0.6328,0.0899 -0.0118,0.004 -0.0196,0.008 -0.0313,0.004 -0.2109,0.0312 -0.4219,0.0547 -0.6367,0.0742 -0.1641,0.0195 -0.332,0.0312 -0.5,0.043 -0.0899,0.008 -0.1758,0.0156 -0.2656,0.0156 -0.1524,0.0117 -0.3047,0.0195 -0.4571,0.0234 -0.2461,0.0117 -0.4922,0.0156 -0.7383,0.0156 -0.0039,0 -0.0039,0 -0.0078,0 -0.0703,0 -0.1445,0 -0.2148,-0.004 -0.0703,0 -0.1406,0 -0.2109,0 -0.0704,0 -0.1407,0.004 -0.211,0 -0.0742,0.004 -0.1445,0.004 -0.2148,0.004 -0.2539,0 -0.5078,-0.004 -0.7617,-0.0156 -0.1368,-0.004 -0.2774,-0.0117 -0.4141,-0.0195 -0.0899,-0.004 -0.1758,-0.0117 -0.2656,-0.0195 -0.0078,0.004 -0.0157,0.004 -0.0196,0 -0.1679,-0.0118 -0.3398,-0.0235 -0.5078,-0.043 -0.2383,-0.0195 -0.4765,-0.0508 -0.7187,-0.082 -0.1875,-0.0235 -0.3711,-0.0508 -0.5586,-0.0821 -0.0117,0 -0.0196,-0.004 -0.0313,-0.004 -0.1992,-0.0351 -0.3984,-0.0703 -0.5976,-0.1094 -0.1719,-0.0312 -0.3399,-0.0664 -0.5118,-0.1054 -0.125,-0.0274 -0.246,-0.0547 -0.3671,-0.086 -0.1836,-0.039 -0.3633,-0.0859 -0.543,-0.1367 -0.1758,-0.0469 -0.3516,-0.0937 -0.5274,-0.1484 -0.2343,-0.0664 -0.4609,-0.1406 -0.6914,-0.2188 -0.1718,-0.0547 -0.3437,-0.1172 -0.5156,-0.1797 -0.4492,-0.164 -0.8945,-0.3437 -1.332,-0.539 -0.168,-0.0742 -0.336,-0.1524 -0.5039,-0.2344 -0.4141,-0.1953 -0.8164,-0.4062 -1.2149,-0.6289 -0.1797,-0.1016 -0.3554,-0.207 -0.5312,-0.3125 -0.0156,-0.008 -0.0313,-0.0195 -0.0469,-0.0273 -0.3594,-0.2188 -0.7148,-0.4493 -1.0586,-0.6914 -0.1914,-0.129 -0.3789,-0.2657 -0.5664,-0.4063 -0.1641,-0.125 -0.3281,-0.25 -0.4922,-0.3828 -0.1758,-0.1367 -0.3476,-0.2813 -0.5195,-0.4297 -0.1641,-0.1406 -0.3281,-0.2812 -0.4883,-0.4297 -0.1211,-0.1094 -0.2422,-0.2265 -0.3633,-0.3437 -0.0039,0 -0.0078,-0.004 -0.0117,-0.008 -17.6992,-10.3125 -35.4023,-20.6133 -53.0976,-30.918 -27.5586,-16.0508 -55.1133,-32.0977 -82.6719,-48.1445 -27.9961,-16.3008 -55.9883,-32.6055 -83.9844,-48.9063 -28.4726,-16.582 -56.9453,-33.1641 -85.418,-49.7461 -28.8554,-16.8008 -57.707,-33.6094 -86.5664,-50.4101 -28.8867,-16.8243 -57.7734,-33.6446 -86.6601,-50.4688 -28.4883,-16.5937 -56.9883,-33.1836 -85.4766,-49.7773 -14.0312,-8.1719 -28.0625,-16.3438 -42.0937,-24.5157 -14.0313,-8.1718 -28.0625,-16.3437 -42.0938,-24.5117 -6.7383,-3.9258 -13.4726,-7.8554 -20.2109,-11.7812 -2.9492,-1.7188 -5.8946,-3.4375 -8.8438,-5.1524 -3.789,-2.2109 -7.5781,-4.414 -11.3711,-6.6172 -0.0234,-0.0117 -0.0429,-0.0234 -0.0664,-0.0351 -0.1289,-0.0703 -0.2578,-0.1445 -0.3867,-0.2188 -0.6601,-0.3828 -1.3203,-0.7695 -1.9766,-1.1523 -0.6601,-0.3828 -1.3164,-0.7695 -1.9765,-1.1524 -0.293,-0.1679 -0.5781,-0.3437 -0.8555,-0.5312 -0.1484,-0.0898 -0.289,-0.1875 -0.4336,-0.2891 -0.0859,-0.0547 -0.1679,-0.1132 -0.2461,-0.1718 -0.1406,-0.0977 -0.2734,-0.1954 -0.4101,-0.3008 -0.0547,-0.0352 -0.1094,-0.0781 -0.1602,-0.1211 -0.1797,-0.1328 -0.3555,-0.2735 -0.5273,-0.418 -0.0235,-0.0156 -0.043,-0.0312 -0.0664,-0.0508 -0.1836,-0.1523 -0.3633,-0.3086 -0.543,-0.4687 -0.0273,-0.0235 -0.0508,-0.043 -0.0742,-0.0664 -0.1914,-0.168 -0.3789,-0.3438 -0.5625,-0.5274 -0.1485,-0.1445 -0.2969,-0.289 -0.4375,-0.4414 -0.0821,-0.082 -0.1602,-0.164 -0.2344,-0.2461 -0.1289,-0.1328 -0.2539,-0.2695 -0.3711,-0.4101 -0.0391,-0.0391 -0.0781,-0.0821 -0.1094,-0.125 -0.125,-0.1367 -0.2422,-0.2774 -0.3593,-0.4219 -0.043,-0.0469 -0.0821,-0.0977 -0.1211,-0.1484 -0.1602,-0.1953 -0.3125,-0.3946 -0.461,-0.5938 -0.1797,-0.2383 -0.3515,-0.4765 -0.5156,-0.7226 -0.125,-0.1836 -0.25,-0.3711 -0.3672,-0.5625 -0.0117,-0.0157 -0.0195,-0.0313 -0.0312,-0.0469 -0.1094,-0.1719 -0.2149,-0.3477 -0.3164,-0.5235 -0.043,-0.0703 -0.086,-0.1445 -0.1289,-0.2226 -0.1094,-0.1914 -0.2188,-0.3828 -0.3204,-0.582 -0.125,-0.2305 -0.2421,-0.461 -0.3554,-0.6993 0,0 0,-0.004 -0.004,-0.008 -0.1094,-0.2265 -0.2149,-0.457 -0.3125,-0.6914 -0.004,-0.004 -0.008,-0.008 -0.008,-0.0117 0,0 0,-0.004 -0.004,-0.004 -0.4648,-0.6289 -0.8945,-1.2852 -1.2851,-1.9648 -0.0703,-0.1133 -0.1328,-0.2305 -0.1953,-0.3438 -0.1328,-0.2461 -0.2656,-0.4922 -0.3906,-0.7461 -0.0508,-0.1016 -0.1016,-0.2031 -0.1485,-0.3047 -0.1758,-0.3672 -0.3398,-0.7422 -0.4961,-1.1211 -0.0429,-0.1093 -0.0859,-0.2187 -0.1289,-0.332 -0.0547,-0.1406 -0.1094,-0.2813 -0.1601,-0.4258 -0.125,-0.3555 -0.2461,-0.7148 -0.3516,-1.0781 -0.0391,-0.1289 -0.0742,-0.2539 -0.1094,-0.3828 -0.0351,-0.1289 -0.0703,-0.2578 -0.1015,-0.3867 -0.1016,-0.3907 -0.1875,-0.7813 -0.2618,-1.1797 -0.0195,-0.0899 -0.0351,-0.1836 -0.0507,-0.2735 -0.0235,-0.1172 -0.0391,-0.2343 -0.0586,-0.3515 -0.0938,-0.5899 -0.1602,-1.1875 -0.1993,-1.793 -0.008,-0.125 -0.0156,-0.2539 -0.0234,-0.3789 -0.004,-0.1172 -0.008,-0.2344 -0.0117,-0.3516 -0.004,-0.1679 -0.008,-0.3359 -0.008,-0.5078 -0.004,-0.7617 -0.008,-1.5273 -0.008,-2.289 -0.004,-0.7618 -0.008,-1.5235 -0.008,-2.2852 0,-0.004 0,-0.008 0,-0.0117 0,-0.0547 0,-0.1133 0.004,-0.168 0,-0.004 -0.004,-0.008 0,-0.0117 0,-0.0234 0,-0.0469 0,-0.0703 0,-0.0156 0,-0.0352 0,-0.0508 0,-0.0312 0,-0.0625 0,-0.0977 -0.008,-2.8476 -0.0157,-5.6953 -0.0274,-8.539 -0.0273,-8.461 -0.0664,-16.9219 -0.1015,-25.3867 -0.0196,-4.3203 -0.0352,-8.6446 -0.0508,-12.9688 -0.1211,-32.4726 -0.2383,-64.9492 -0.3672,-97.4219 -0.125,-32.9726 -0.2422,-65.9453 -0.3672,-98.9179 -0.1289,-33.4258 -0.2539,-66.8555 -0.3789,-100.2813 -0.1211,-33.3945 -0.25,-66.7851 -0.375,-100.1758 -0.1211,-32.9453 -0.2461,-65.8984 -0.3672,-98.8437 -0.1211,-32.3945 -0.2461,-64.793 -0.3672,-97.1875 -0.1172,-31.8906 -0.2383,-63.7774 -0.3555,-95.668 -0.0781,-20.4804 -0.1484,-40.9648 -0.2304,-61.4492 -0.0117,-0.0391 -0.0196,-0.082 -0.0274,-0.1211 -0.0429,-0.1562 -0.0781,-0.3164 -0.1093,-0.4766 -0.043,-0.1992 -0.086,-0.3984 -0.1172,-0.5976 -0.0391,-0.1992 -0.0703,-0.4024 -0.1016,-0.6016 -0.0351,-0.1992 -0.0625,-0.4023 -0.082,-0.6015 -0.0742,-0.5938 -0.1211,-1.1914 -0.1367,-1.7891 0,-0.008 0,-0.0195 0,-0.0312 -0.0157,-0.4336 -0.0118,-0.8711 0.004,-1.3086 0.004,-0.2344 0.0156,-0.4649 0.0351,-0.6954 0,-0.004 0,-0.0117 0,-0.0156 0.0117,-0.1758 0.0274,-0.3476 0.043,-0.5195 0.0312,-0.3477 0.0742,-0.6953 0.125,-1.0391 0.0273,-0.1718 0.0547,-0.3437 0.082,-0.5156 0.0352,-0.2148 0.0742,-0.4258 0.1211,-0.6367 0.004,-0.0352 0.0117,-0.0703 0.0195,-0.1055 0.1368,-0.668 0.3086,-1.3281 0.5196,-1.9765 0.0586,-0.1915 0.1211,-0.3868 0.1875,-0.5743 0.0234,-0.0703 0.0508,-0.1406 0.0742,-0.2109 0.1406,-0.3984 0.2969,-0.793 0.4687,-1.1836 0.004,-0.004 0.004,-0.0117 0.008,-0.0195 0.0898,-0.2071 0.1836,-0.4141 0.2812,-0.6172 0.1055,-0.2266 0.2188,-0.4492 0.332,-0.6719 0.0938,-0.1836 0.1914,-0.3633 0.293,-0.543 0.0234,-0.0468 0.0508,-0.0898 0.0781,-0.1367 0.086,-0.1562 0.1758,-0.3086 0.2696,-0.4609 0.008,-0.0117 0.0156,-0.0274 0.0234,-0.0391 0.082,-0.1445 0.1641,-0.2929 0.2461,-0.4336 0.082,-0.1406 0.168,-0.2812 0.25,-0.4179 0.0195,-0.0274 0.0352,-0.0547 0.0508,-0.0821 0.164,-0.2617 0.332,-0.5156 0.5039,-0.7695 0.1914,-0.2773 0.3906,-0.5469 0.5898,-0.8164 0.2032,-0.2617 0.4102,-0.5195 0.6211,-0.7695 0.1094,-0.1289 0.2227,-0.2579 0.3321,-0.3868 0.1093,-0.1211 0.2187,-0.2421 0.332,-0.3632 0.1133,-0.1211 0.2265,-0.2422 0.3437,-0.3594 0.1172,-0.1211 0.2344,-0.2383 0.3516,-0.3555 0.2656,-0.2578 0.5391,-0.5117 0.8203,-0.7578 0.0938,-0.082 0.1914,-0.1641 0.2891,-0.2461 0.125,-0.1094 0.2539,-0.2148 0.3867,-0.3203 0.1367,-0.1094 0.2734,-0.2188 0.4141,-0.3242 0.125,-0.0977 0.25,-0.1914 0.3789,-0.2813 0.1328,-0.0976 0.2656,-0.1914 0.3984,-0.2812 0.4219,-0.2969 0.8555,-0.5742 1.3008,-0.8321 0.1172,-0.0703 0.2344,-0.1367 0.3554,-0.2031 0.086,-0.0469 0.1719,-0.0937 0.2579,-0.1445 0.125,-0.0664 0.2539,-0.1328 0.3828,-0.1992 0.1406,-0.0742 0.2851,-0.1446 0.4336,-0.2149 0.5586,-0.2734 1.1289,-0.5156 1.7148,-0.7343 0.0859,-0.0352 0.1758,-0.0665 0.2656,-0.0977 0.086,-0.0313 0.1719,-0.0625 0.2618,-0.0898 0.2031,-0.0704 0.4062,-0.1368 0.6093,-0.1954 0.0586,-0.0195 0.1172,-0.039 0.1758,-0.0546 0.0391,-0.0157 0.082,-0.0274 0.125,-0.0391 8.9141,-5.1016 17.832,-10.2031 26.7461,-15.3086 8.8633,-5.0742 17.7227,-10.1484 26.5859,-15.2188 27.6797,-15.8398 55.3516,-31.6796 83.0313,-47.5234 28.1133,-16.0937 56.2305,-32.1836 84.3437,-48.2773 28.5977,-16.3672 57.1954,-32.7344 85.7891,-49.1016 28.9805,-16.5859 57.9609,-33.1719 86.9414,-49.7617 29.0117,-16.6055 58.0234,-33.211 87.0352,-49.8164 28.6172,-16.375 57.2304,-32.7617 85.8515,-49.1367 28.1836,-16.129 56.3672,-32.2618 84.5508,-48.3946 7.5039,-4.2969 15.0117,-8.582 22.5195,-12.8789 3.7422,-2.1367 7.4844,-4.2773 11.2227,-6.4219 2.2969,-1.3125 4.5898,-2.6289 6.8828,-3.9453 0.0391,-0.023 0.0781,-0.047 0.1211,-0.07 0.0352,-0.023 0.0703,-0.043 0.1055,-0.062 0.0664,-0.043 0.1367,-0.082 0.2031,-0.1211 1.3203,-0.7617 2.6484,-1.5117 3.9726,-2.2734 0.7813,-0.4492 1.586,-0.8399 2.3985,-1.1719 0.3555,-0.1445 0.7109,-0.2773 1.0703,-0.3984 0.7187,-0.2461 1.4453,-0.4492 2.1797,-0.6055 1.625,-0.3594 3.2734,-0.5078 4.9141,-0.4609 0.1953,0 0.3906,0.016 0.5859,0.023 0.1953,0.01 0.3906,0.023 0.582,0.043 0.1914,0.012 0.3828,0.031 0.5742,0.059 0.0039,0 0.0039,0 0.0079,0 0.0039,0 0.0039,0 0.0078,0 0.1914,-0.027 0.3828,-0.047 0.5742,-0.059 0.1914,-0.02 0.3867,-0.035 0.582,-0.043 0.1953,-0.01 0.3906,-0.019 0.586,-0.023 1.6406,-0.047 3.289,0.1015 4.914,0.4609 0.7344,0.1563 1.461,0.3594 2.1797,0.6055 0.3594,0.1211 0.7148,0.2539 1.0703,0.3984 0.8125,0.332 1.6172,0.7227 2.3985,1.1719 1.3242,0.7617 2.6523,1.5117 3.9726,2.2734 0.0664,0.039 0.1367,0.078 0.2031,0.1211 0.0352,0.019 0.0703,0.039 0.1055,0.062 0.043,0.024 0.082,0.047 0.1211,0.07 2.293,1.3164 4.5859,2.6328 6.8828,3.9453 3.7383,2.1446 7.4805,4.2852 11.2227,6.4219 7.5078,4.2969 15.0156,8.582 22.5195,12.8789 28.1836,16.1328 56.3672,32.2656 84.5508,48.3946 28.6211,16.375 57.2343,32.7617 85.8515,49.1367 29.0118,16.6054 58.0235,33.2109 87.0352,49.8164 28.9805,16.5898 57.9609,33.1758 86.9414,49.7617 28.5937,16.3672 57.1914,32.7344 85.7891,49.1016 28.1132,16.0937 56.2304,32.1836 84.3437,48.2773 27.6797,15.8438 55.3516,31.6836 83.0313,47.5234 8.8632,5.0704 17.7226,10.1446 26.5859,15.2188 8.9141,5.1055 17.832,10.207 26.7461,15.3086 5.1914,1.5 9.6133,5.0898 12.1914,9.7695 0.008,0.0117 0.0156,0.0274 0.0234,0.0391 0.0938,0.1523 0.1836,0.3047 0.2696,0.4609 0.0273,0.0469 0.0547,0.0899 0.0781,0.1367 0.1016,0.1797 0.1992,0.3594 0.293,0.543 0.1132,0.2227 0.2265,0.4453 0.332,0.6719 0.0976,0.2031 0.1914,0.4101 0.2812,0.6172 0.004,0.008 0.004,0.0156 0.008,0.0195 0.1718,0.3906 0.3281,0.7852 0.4687,1.1836 0.0234,0.0703 0.0508,0.1406 0.0742,0.2109 0.0664,0.1875 0.1289,0.3828 0.1875,0.5743 0.211,0.6484 0.3828,1.3085 0.5196,1.9765 0.008,0.0352 0.0156,0.0703 0.0195,0.1055 0.0469,0.2109 0.0859,0.4219 0.1211,0.6367 0.0273,0.1719 0.0547,0.3438 0.082,0.5156 0.0508,0.3438 0.0938,0.6914 0.125,1.0391 0.0156,0.1719 0.0313,0.3437 0.043,0.5195 0,0.004 0,0.0117 0,0.0156 0.0195,0.2305 0.0312,0.461 0.0351,0.6954 z" /></g><g
             transform="translate(1367.8101,1243.9833)"
             id="g30"><path
               id="path32"
               style="fill:#000000;fill-opacity:1;fill-rule:nonzero;stroke:none"
               d="m 0,0 c -3.3745,2e-4 -6.7758,-0.8436 -9.8599,-2.6249 -0.0734,-0.042 -0.1474,-0.0849 -0.2216,-0.1282 -0.1148,-0.0661 -0.2283,-0.1319 -0.3431,-0.1982 -0.0332,-0.0188 -0.0662,-0.0378 -0.0993,-0.0564 -0.034,-0.0196 -0.0673,-0.0395 -0.1011,-0.0593 -15.2784,-8.8245 -30.509,-17.7372 -45.7661,-26.6048 -18.3711,-10.6757 -36.7422,-21.3632 -55.1172,-32.039 -18.293,-10.625 -36.5781,-21.2617 -54.8672,-31.8906 -17.1836,-9.9883 -34.3633,-19.9844 -51.5508,-29.9649 -12.8476,-7.4609 -25.6875,-14.9375 -38.5351,-22.4023 -3.2891,-1.9102 -6.5782,-3.8282 -9.8711,-5.7344 -9.4297,-5.4727 -12.7774,-17.8672 -7.3203,-27.3242 5.4414,-9.4219 17.8906,-12.7891 27.3203,-7.3203 7.3359,4.2578 14.6679,8.5273 22.0039,12.7929 16.2226,9.4297 32.4414,18.8633 48.668,28.2891 17.7265,10.293 35.4414,20.6016 53.164,30.9023 18.4297,10.711 36.8633,21.4141 55.2852,32.1368 18.3086,10.6601 36.6289,21.2929 54.9453,31.9375 7.275,4.2271 14.5395,8.4806 21.8248,12.6876 0.125,0.0711 0.2499,0.1438 0.3739,0.2159 0.0694,0.0401 0.1382,0.0799 0.2075,0.1199 9.4414,5.4531 12.7735,17.8828 7.3203,27.3203 C 13.7913,-3.588 6.9556,-6e-4 0,0 Z" /></g><g
             transform="translate(678.9264,1241.7939)"
             id="g34"><path
               id="path36"
               style="fill:#000000;fill-opacity:1;fill-rule:nonzero;stroke:none"
               d="m 0,0 c -6.9562,1e-4 -13.7911,-3.5856 -17.4606,-9.9434 -5.4531,-9.4375 -2.1211,-21.8711 7.3203,-27.3203 0.1014,-0.0598 0.2043,-0.1186 0.3074,-0.1773 15.4335,-8.9085 30.9202,-17.7292 46.3801,-26.5961 18.4336,-10.5742 36.875,-21.1406 55.3086,-31.7149 18.3477,-10.5273 36.6993,-21.0468 55.0508,-31.5703 17.2422,-9.8867 34.4883,-19.7656 51.7266,-29.6601 12.8867,-7.3985 25.7812,-14.7813 38.6679,-22.1719 3.3008,-1.8945 6.6016,-3.7852 9.9024,-5.6797 9.4531,-5.4297 21.8633,-2.1367 27.3203,7.3203 5.4414,9.4219 2.1328,21.8907 -7.3203,27.3203 -7.3555,4.2266 -14.7188,8.4375 -22.0781,12.6602 -16.2774,9.332 -32.5586,18.6602 -48.8321,28.0039 -17.7812,10.2031 -35.5664,20.3906 -53.3476,30.5898 -18.4883,10.6016 -36.9766,21.2188 -55.4727,31.8086 -18.3828,10.5274 -36.7539,21.0782 -55.1328,31.6172 -7.2562,4.1615 -14.5267,8.3011 -21.7732,12.4825 -0.0144,0.0084 -0.0288,0.017 -0.0432,0.0253 -0.1212,0.0713 -0.2446,0.1416 -0.3679,0.212 C 10.0573,-2.7371 9.9584,-2.6801 9.8597,-2.623 6.7762,-0.8434 3.3738,0 0,0 Z" /></g><g
             transform="translate(1004.3916,922.7646)"
             id="g38"><path
               id="path40"
               style="fill:#000000;fill-opacity:1;fill-rule:nonzero;stroke:none"
               d="m 0,0 c 0.0195,-8.4844 0.0508,-16.9688 0.0742,-25.4531 0.0547,-18.7617 0.1172,-37.5274 0.168,-56.293 0.0508,-20.4961 0.1211,-40.9961 0.1797,-61.4922 0.0625,-21.3164 0.1093,-42.6328 0.1875,-63.9492 0.0781,-21.1836 0.125,-42.3672 0.1875,-63.5508 0.0234,-8.6406 0.0742,-17.2773 0.0742,-25.9179 0,-10.8985 9.1016,-20 20,-20 10.9023,0 20,9.1015 20,20 0,0.2578 0,0.5117 0,0.7695 0,0.0146 -3e-4,0.0297 -3e-4,0.0443 -0.0031,17.6699 -0.1059,35.3405 -0.156,53.0065 -0.0585,21.2539 -0.1289,42.5039 -0.1875,63.7539 -0.0585,21.1562 -0.125,42.3086 -0.1875,63.4648 -0.0585,19.875 -0.125,39.75 -0.1757,59.625 -0.0352,14.8594 -0.0899,29.7149 -0.1289,44.5742 C 40.0234,-7.6133 40.0078,-3.8086 40,0 39.9766,10.8984 30.918,20 20,20 9.1172,20 -0.0234,10.8984 0,0 Z" /></g></g></g></g></g></svg>